# xmcd
#
# Track frame offsets:
#	150
#	16122
#	32185
#	46182
#	62800
#	77592
#	91717
#	108342
#	124522
#	139467
#	153625
#	167792
#
# Disc length: 2420 seconds
#
# Revision: 2
# Processed by: cddbd v1.4PL0 Copyright (c) Steve Scherf et al.
# Submitted via: audiograbber 1.80
#
DISCID=9209720c
DTITLE=Bobby Pulido - Llegaste a mi vida
DYEAR=1900
DGENRE=
TTITLE0=Le pedire
TTITLE1=Llegaste a mi vida
TTITLE2=Dime que debo hacer
TTITLE3=Tal Vez
TTITLE4=Como Siempre te soñe
TTITLE5=Vente conmigo
TTITLE6=Que mas te puedo dar
TTITLE7=Que me trague la tierra
TTITLE8=Nunca te olvidare
TTITLE9=Donde estes
TTITLE10=Estoy solo
TTITLE11=Ni un Minuto mas
EXTD=
EXTT0=
EXTT1=
EXTT2=
EXTT3=
EXTT4=
EXTT5=
EXTT6=
EXTT7=
EXTT8=
EXTT9=
EXTT10=
EXTT11=
PLAYORDER=
